<?xml version="1.0" encoding="utf-8"?>
<!-- Generator: Adobe Illustrator 27.5.0, SVG Export Plug-In . SVG Version: 6.00 Build 0)  -->
<svg version="1.1" xmlns="http://www.w3.org/2000/svg" xmlns:xlink="http://www.w3.org/1999/xlink" x="0px" y="0px"
	 viewBox="0 0 766.499 500" style="enable-background:new 0 0 766.499 500;" xml:space="preserve">
<g id="BACKGROUND">
	<rect x="0.052" y="0.327" style="fill:#FFF8F3;" width="766.395" height="499.346"/>
</g>
<g id="OBJECTS">
	<g>
		<path style="opacity:0.37;fill:#E8B8B4;" d="M598.603,44.522c-13.671-5.282-28.411-7.524-42.958-5.78
			c-33.157,3.975-60.557,26.947-84.838,49.873c-24.28,22.927-49.079,47.702-81.167,56.952
			c-62.305,17.96-126.521-28.405-191.112-22.717c-56.975,5.017-106.284,56.016-109.381,113.127
			c-0.825,15.216,1.244,30.573-0.861,45.665c-1.617,11.59-5.658,22.719-7.576,34.264c-6.082,36.599,11.605,76.038,42.98,95.839
			c33.663,21.244,76.79,19.33,115.973,12.314c39.183-7.016,78.571-18.443,118.098-13.742c42.081,5.004,80.648,27.984,122.887,31.408
			c25.509,2.068,51.867-3.428,73.468-17.153c21.601-13.725,38.068-35.916,43.161-60.996c4.729-23.288-0.192-47.799,5.113-70.962
			c6.351-27.726,26.323-49.89,42.962-72.96c35.445-49.146,32.564-110.493-12.543-153.409
			C622.988,56.9,611.253,49.409,598.603,44.522z"/>
		
			<path style="fill:none;stroke:#2D1A14;stroke-width:1.4604;stroke-linecap:round;stroke-linejoin:round;stroke-miterlimit:10;" d="
			M662.243,37.947l-90.117,52.029c-2.782,1.606-6.373,0.644-7.98-2.138l-0.106-0.184c-1.606-2.782-0.644-6.373,2.138-7.98
			l90.117-52.029c2.782-1.607,6.373-0.644,7.98,2.138l0.106,0.184C665.987,32.75,665.025,36.34,662.243,37.947z"/>
		
			<path style="fill:none;stroke:#2D1A14;stroke-width:1.4604;stroke-linecap:round;stroke-linejoin:round;stroke-miterlimit:10;" d="
			M180.513,345.106l-90.117,52.029c-2.782,1.606-6.373,0.644-7.98-2.138l-0.106-0.184c-1.606-2.783-0.644-6.373,2.138-7.98
			l90.117-52.029c2.782-1.606,6.373-0.644,7.98,2.138l0.106,0.184C184.257,339.908,183.295,343.499,180.513,345.106z"/>
		
			<line style="fill:none;stroke:#2D1A14;stroke-width:1.4604;stroke-linecap:round;stroke-linejoin:round;stroke-miterlimit:10;" x1="551.678" y1="116.753" x2="653.916" y2="56.383"/>
		
			<line style="fill:none;stroke:#2D1A14;stroke-width:1.4604;stroke-linecap:round;stroke-linejoin:round;stroke-miterlimit:10;" x1="51.739" y1="376.164" x2="114.05" y2="340.141"/>
		<circle style="fill:#241624;" cx="581.931" cy="167.529" r="48.292"/>
		<g>
			<g>
				<g>
					<path style="fill:#FBC999;" d="M189.912,409.019h23.718c18.818,0,34.215-15.397,34.215-34.215v-66.919
						c0-18.818-15.397-34.215-34.215-34.215h-23.718c-18.818,0-34.215,15.397-34.215,34.215v66.919
						C155.697,393.623,171.094,409.019,189.912,409.019z"/>
					<path style="fill:#FBC999;" d="M267.053,457.139c-6.101-46.115-11.443-85.927-12.672-93.469l-45.716,11.577
						c0.696,6.846,6.828,40.98,14.411,81.891H267.053z"/>
					<path style="fill:#FBC999;" d="M198.151,457.139c1.474-49.311,2.563-92.775,2.428-101.49l-46.755-6.164
						c-0.418,9.355,0.326,55.706,1.31,107.654H198.151z"/>
					<g>
						<g>
							<g>
								<path style="fill:#7F68BA;" d="M227.094,193.117c-6.339,18.651-9.953,38.005-10.811,57.683c-0.079,1.808,2.732,1.804,2.81,0
									c0.848-19.439,4.45-38.516,10.711-56.936C230.387,192.148,227.674,191.411,227.094,193.117L227.094,193.117z"/>
							</g>
						</g>
						<g>
							<g>
								<path style="fill:#7F68BA;" d="M216.383,261.146c-0.436,7.788-0.871,15.577-1.307,23.365c-0.101,1.807,2.71,1.801,2.81,0
									c0.436-7.789,0.871-15.577,1.307-23.365C219.294,259.339,216.484,259.345,216.383,261.146L216.383,261.146z"/>
							</g>
						</g>
						<path style="fill:#F3725F;" d="M237.955,169.352c-1.273,4.135-2.217,8.372-2.821,12.656
							c-0.904,6.412-0.865,13.522,3.104,18.638c-3.212,3.513-7.785,6.181-12.5,6.835c-4.715,0.654-9.647-0.389-13.694-2.896
							c-1.104-0.684-2.141-1.47-3.175-2.255c-1.269-0.963-2.538-1.926-3.808-2.889c7.039-9.493,13.341-20.163,13.071-31.979
							c3.005-0.217,7.311-0.989,10.316-1.206c1.303-0.094,2.62-0.188,3.911,0.014C234.408,166.59,235.884,169.471,237.955,169.352z"
							/>
						<path style="fill:#241624;" d="M213.609,185.856c3.417,0.544,6.834,0.699,10.118-0.325c4.816-1.502,8.094-5.642,10.305-9.978
							c1.057-2.074,1.934-4.248,2.67-6.484c-1.472-0.714-2.73-2.546-4.342-2.798c-1.291-0.201-2.608-0.108-3.911-0.014
							c-3.005,0.217-7.311,0.989-10.316,1.206C218.28,173.94,216.45,180.072,213.609,185.856z"/>
						<path style="fill:#A595FA;" d="M277.819,280.219c-0.431,1.692-0.88,3.377-1.336,5.064c-1.983,7.353-4.13,14.663-6.27,21.977
							c-0.373,1.268-0.745,2.532-1.115,3.8c-0.055,0.189-0.112,0.38-0.167,0.569l0,0.003c-1.488,5.078-2.95,10.156-4.348,15.258
							c-0.32,1.17-0.637,2.341-0.948,3.514c-1.773,6.649-3.405,13.337-4.763,20.084c-0.789,3.935-1.491,7.887-2.071,11.859
							c-0.131,0.882-0.207,1.789-0.304,2.683c-0.293,2.646-0.777,5.183-3.405,6.658c-0.581,0.319-1.208,0.58-1.879,0.778
							c-0.665,0.198-1.365,0.345-2.089,0.439c-0.421,0.061-0.851,0.103-1.293,0.132c-4.553,0.311-9.908-0.758-13.692-0.979
							c-7.264-0.432-14.532-0.854-21.797-1.282c-2.772-0.161-5.542-0.329-8.314-0.487l-0.003,0
							c-0.676-0.044-1.363-0.082-2.046-0.121l-0.003,0c-6.481-0.381-12.966-0.766-19.45-1.145
							c-4.696-0.278-9.461-0.821-14.169-0.833c-3.495-0.007-7.752,0.418-11.211-0.841l-0.003,0c-0.884-0.32-1.706-0.746-2.456-1.319
							c-0.012-0.007-0.015-0.01-0.027-0.023c-0.633-0.479-1.22-1.052-1.638-1.723c-0.132-0.227-0.254-0.47-0.346-0.72
							c-1.385-3.736-0.607-9.271-0.627-13.179c-0.028-5.63-0.134-11.259-0.265-16.892c-0.262-11.329-0.634-22.665-0.704-33.999
							c-0.107-17.644,0.51-35.414,3.399-52.841l0.001-0.009c0.09-0.545,0.184-1.093,0.277-1.638c0.315-1.812,0.655-3.615,1.02-5.418
							c0.511-2.511,1.072-5.01,1.692-7.499c2.866-11.519,8.217-22.336,15.348-31.595c0.492-0.642,0.995-1.274,1.505-1.899
							c0.846-0.126,1.694-0.229,2.551-0.316l0.003,0c6.249-0.637,12.604-0.247,18.896,0.161c1.61,0.099,3.219,0.208,4.82,0.298
							l0.157,0.009c0.382,0.021,0.764,0.043,1.147,0.058c0.213,0.012,0.426,0.021,0.64,0.03c0.52,0.026,1.041,0.049,1.561,0.072
							c0.442,0.018,0.881,0.037,1.324,0.052c0.003,0,0.003,0,0.003,0c0.047,0.003,0.094,0.005,0.141,0.005c0.003,0,0.003,0,0.003,0
							c0.511,0.019,1.022,0.038,1.531,0.054c1.681,0.056,3.36,0.103,5.043,0.144c0.377,0.012,0.753,0.023,1.13,0.029
							c0.596,0.014,1.193,0.029,1.789,0.043c1.265,0.033,2.533,0.063,3.801,0.093c0.461,0.013,0.926,0.023,1.387,0.037l0.003,0
							c0.06,0,0.119,0.004,0.179,0.007c1.268,0.036,2.535,0.079,3.805,0.125c0.301,0.01,0.605,0.021,0.906,0.035
							c0.439,0.015,0.878,0.033,1.317,0.055l0.003,0c0.204,0.008,0.408,0.017,0.611,0.028c0.743,0.032,1.486,0.07,2.228,0.112
							c1.936,0.108,3.868,0.241,5.801,0.409c0.407,0.035,0.813,0.071,1.223,0.109c0.316,0.027,0.632,0.057,0.95,0.091
							c0.144,0.014,0.288,0.029,0.431,0.043c0.122,0.013,0.244,0.026,0.362,0.039c0.297,0.029,0.594,0.061,0.891,0.094
							c0.637,0.067,1.274,0.143,1.914,0.223c0.215,0.025,0.431,0.052,0.646,0.08c0.284,0.035,0.571,0.073,0.855,0.114
							c0.175,0.022,0.346,0.048,0.521,0.073c0.175,0.022,0.349,0.051,0.524,0.076c0.306,0.042,0.611,0.088,0.917,0.133
							c0.022,0.004,0.044,0.006,0.065,0.01c0.284,0.044,0.567,0.088,0.85,0.139c0.013-0.003,0.028,0.002,0.041,0.005
							c0.069,0.01,0.137,0.02,0.206,0.034c0.009,0.001,0.016,0.001,0.022,0.004c0.321,0.052,0.645,0.108,0.968,0.167
							c0.019,0.001,0.038,0.002,0.053,0.006c0.04,0.005,0.081,0.014,0.121,0.019c0.025,0.004,0.05,0.009,0.078,0.014
							c0.258,0.046,0.513,0.098,0.774,0.147c2.417,0.449,4.818,1.008,7.178,1.69c4.447,1.295,8.73,3.062,12.607,5.501
							c4.93,3.108,9.358,6.885,13.363,11.085c2.328,2.437,4.509,5.02,6.566,7.697c0.003,0.164,0.003,0.333,0.007,0.494
							c0.009,0.447,0.016,0.89,0.016,1.337C287.223,246.789,282.115,263.538,277.819,280.219z"/>
						<path style="fill:#A595FA;" d="M235.667,211.957c-4.615,3.528-10.04,7.093-15.339,8.796c-1.185,0.381-2.395,0.691-3.623,0.899
							c-1.385,0.235-1.661,0.265-3.018,0.235c-2.035-0.045-4.037-0.515-5.521-1.305c-4.737-2.522-7.536-7.492-9.547-12.637
							c-1.202-3.074-2.123-6.264-2.854-9.511c1.664,0.108,3.323,0.216,4.976,0.308c11.445,0.632,22.928,0.399,34.355,1.388
							c4.073,0.353,8.267,0.84,12.415,1.62C243.729,205.344,239.809,208.791,235.667,211.957z"/>
						<path style="fill:#F3725F;" d="M224.869,179.244L224.869,179.244c-7.151-1.162-12.122-7.529-11.046-14.151l2.835-17.454
							c1.075-6.621,7.806-11.088,14.957-9.927h0c7.151,1.161,12.121,7.529,11.046,14.151l-2.835,17.454
							C238.75,175.939,232.02,180.406,224.869,179.244z"/>
						<path style="fill:#F3725F;" d="M247.192,163.807c-0.416,2.56-2.829,4.299-5.389,3.883c-2.56-0.416-4.299-2.829-3.883-5.389
							c0.416-2.56,2.829-4.299,5.389-3.883C245.869,158.834,247.608,161.247,247.192,163.807z"/>
						<path style="fill:#F3725F;" d="M217.625,158.581c-0.416,2.56-2.829,4.299-5.389,3.883c-2.56-0.416-4.299-2.829-3.883-5.389
							c0.416-2.56,2.829-4.299,5.389-3.883C216.303,153.608,218.041,156.02,217.625,158.581z"/>
						<g>
							<path style="fill:#A595FA;" d="M214.862,264.106c0.51-4.219,0.332-8.43-0.008-12.625
								c-3.704-45.649-51.705-60.495-72.418-95.232c-7.984-11.645-16.531-22.891-24.73-34.383c-1.495,0.481-2.991,0.959-4.484,1.447
								c-5.438,1.776-10.861,3.595-16.277,5.438c4.925,18.359,9.052,36.955,12.289,55.694
								C131.952,213.082,187.238,275.323,214.862,264.106z"/>
							<g>
								<path style="fill:#F3725F;" d="M94.967,84.205c2.483-0.985,6.032,10.154,6.032,10.154s-1.059-4.229-1.779-8.331
									c-0.627-3.575-0.997-7.053-0.186-7.555c2.752-1.7,6.7,15.204,6.7,15.204s-3.831-18.51-0.297-18.781
									c3.534-0.271,5.246,18.48,5.246,18.48s-0.52-17.736,2.536-17.44c3.056,0.296,2.847,23.199,2.847,23.199
									s7.437-8.882,9.344-7.484c3.217,2.36-11.794,21.888-11.794,21.888l-13.363,1.914
									C100.252,115.452,92.485,85.19,94.967,84.205z"/>
							</g>
							<g>
								<g>
									<path style="fill:#D6594C;" d="M105.994,107.607c-1.549-3.77-1.338-8.026,1.291-11.279c0.84-1.039-0.633-2.53-1.481-1.481
										c-3.078,3.808-3.684,8.802-1.829,13.316C104.48,109.393,106.506,108.854,105.994,107.607L105.994,107.607z"/>
								</g>
							</g>
							<polygon style="fill:#F3725F;" points="100.252,115.452 104.388,128.303 118.349,123.228 112.862,110.772 							"/>
						</g>
						<g>
							<path style="fill:#A595FA;" d="M263.563,255.237c-1.726-3.884-2.792-7.962-3.698-12.072
								c-9.858-44.726,31.671-73.006,41.277-112.293c4.214-13.475,9.084-26.735,13.55-40.127c1.57,0.021,3.141,0.039,4.712,0.067
								c5.72,0.102,11.438,0.249,17.156,0.421c0.68,18.996,2.193,37.984,4.599,56.848
								C327.846,182.125,293.263,257.852,263.563,255.237z"/>
							<g>
								<path style="fill:#F3725F;" d="M325.375,48.069c-2.662-0.213-2.786,11.477-2.786,11.477s-0.803-15.245-2.784-15.763
									c-3.129-0.818-1.942,16.5-1.942,16.5s-1.771-18.819-5.228-18.041c-3.457,0.778,0.409,19.206,0.409,19.206
									s-4.708-17.107-7.543-15.928c-2.835,1.18,4.087,23.013,4.087,23.013s-9.717-6.308-11.129-4.412
									c-2.383,3.2,17.699,17.462,17.699,17.462l13.336-2.093C329.494,79.491,328.037,48.282,325.375,48.069z"/>
							</g>
							<g>
								<g>
									<path style="fill:#D6594C;" d="M323.796,73.646c0.46-4.821-1.568-9.492-5.619-12.202c-1.123-0.751-2.173,1.062-1.057,1.808
										c3.469,2.321,4.97,6.328,4.582,10.394C321.574,74.987,323.669,74.978,323.796,73.646L323.796,73.646z"/>
								</g>
							</g>
							<polygon style="fill:#F3725F;" points="329.494,79.491 329.312,92.99 314.477,92.236 316.066,78.718 							"/>
						</g>
						
							<line style="fill:none;stroke:#241624;stroke-width:1.6187;stroke-linecap:round;stroke-linejoin:round;stroke-miterlimit:10;" x1="152.046" y1="350.384" x2="257.141" y2="356.262"/>
					</g>
				</g>
				<path style="fill:#241624;" d="M240.272,165.93c-2.52-5.439-2.586-11.96-0.178-17.45c-10.344,2.672-22.286-1.074-30.21-8.239
					c-3.529-3.191-6.326-7.139-8.475-11.384c-5.016-9.91-6.248-22.571-0.001-31.755c2.273-3.341,5.555-6.127,9.462-7.16
					c3.907-1.032,8.439-0.073,11.148,2.926c1.055,1.167,1.802,2.581,2.397,4.038c3.191,7.815,2.12,16.615,1.434,25.029
					c-0.253,3.106-0.076,6.924,2.679,8.379c3.637,1.919,7.319-0.195,11.103,1.416c2.543,1.083,4.363,3.484,5.25,6.102
					c0.887,2.618,0.938,5.448,0.726,8.204C245.083,152.838,242.627,159.527,240.272,165.93z"/>
				<path style="fill:#FFF8F3;" d="M221.083,159.368c-0.126,0.378-0.237,0.766-0.318,1.171c-0.813,4.069,1.08,7.877,4.227,8.506
					c3.148,0.629,6.358-2.159,7.171-6.228c0.081-0.405,0.128-0.806,0.156-1.203L221.083,159.368z"/>
			</g>
			
				<path style="fill:none;stroke:#241624;stroke-width:1.6187;stroke-linecap:round;stroke-linejoin:round;stroke-miterlimit:10;" d="
				M150.544,168.338c-13.711,15.008-6.453,33.974,6.881,46.318c6.739,6.238,14.885,11.257,23.615,14.16
				c9.669,3.215,18.107,1.727,27.321-2.394c10.471-4.683,20.724-11.466,32.712-10.359c4.758,0.439,9.588,2.105,14.202,0.864
				c4.614-1.242,8.162-7.474,4.746-10.814"/>
			
				<path style="fill:none;stroke:#241624;stroke-width:1.6187;stroke-linecap:round;stroke-linejoin:round;stroke-miterlimit:10;" d="
				M283.284,255.209c-15.978,0.587-37.124,10.525-46.334,23.594c-6.012,8.532-6.719,20.343-14.076,27.748
				c-8.904,8.963-23.411,7.807-35.983,6.551c-12.572-1.255-27.558-0.915-34.809,9.431"/>
			
				<path style="fill:none;stroke:#241624;stroke-width:1.6187;stroke-linecap:round;stroke-linejoin:round;stroke-miterlimit:10;" d="
				M308.684,107.391c12.233,8.912,17.132,28.336,13.99,43.141c-2.35,11.075-7.68,20.171-16.727,26.979
				c-9.047,6.807-20.68,9.212-30.755,4.047"/>
			
				<path style="fill:none;stroke:#241624;stroke-width:1.6187;stroke-linecap:round;stroke-linejoin:round;stroke-miterlimit:10;" d="
				M237.421,372.296c0,0,2.968,26.169,22.122,29.946"/>
			
				<path style="fill:none;stroke:#241624;stroke-width:1.6187;stroke-linecap:round;stroke-linejoin:round;stroke-miterlimit:10;" d="
				M154.597,393.609c0,0,17.536-6.205,23.202-24.281"/>
			
				<path style="fill:none;stroke:#241624;stroke-width:1.6187;stroke-linecap:round;stroke-linejoin:round;stroke-miterlimit:10;" d="
				M196.144,369.598c0,0-4.317,21.853,7.014,29.137"/>
			
				<line style="fill:none;stroke:#241624;stroke-width:1.6187;stroke-linecap:round;stroke-linejoin:round;stroke-miterlimit:10;" x1="202.349" y1="377.961" x2="204.507" y2="405.749"/>
		</g>
		<g>
			<path style="fill:#241624;" d="M412.14,301.463c4.297-16.248,4.21-33.547-0.292-49.746c-4.488-16.15-13.257-31.26-15.194-47.868
				c-1.113-9.542,12.816-21.46,11.519-30.902c-0.696-0.162-2.117-0.427-2.576-1.24c-0.565-1.002-10.973-0.573-15.458-0.763
				c-4.861-0.443-7.833-1.068-12.468,0.31c-5.356,1.593-10.248,5.895-10.56,11.255c-0.224,3.85,1.858,7.42,3.343,11.005
				c1.485,3.584,2.3,7.976-0.132,11.051c-2.147,2.715-6.058,3.422-9.608,3.639c-4.942,0.303-9.921,0.05-14.802-0.752
				c-3.501-0.575-6.982-1.434-10.533-1.428c-3.552,0.006-7.297,1.016-9.634,3.576c-2.337,2.56-2.693,6.89-0.116,9.229
				c-4.69-0.908-7.322,0.749-11.558,2.88c-4.236,2.131-7.859,5.218-11.26,8.44c-6.171,5.848-11.924,12.521-14.256,20.528
				c-2.822,9.687,0.022,20.701,7.234,28.014c7.212,7.313,18.535,10.667,28.802,8.531c-0.767,6.681,2.951,13.015,8.029,17.658
				c5.078,4.643,11.596,7.557,18.155,9.958c10.052,3.679,20.698,6.365,31.452,5.965c10.754-0.4,21.681-4.174,28.936-11.782
				c1.324-1.388,2.577-3.06,2.512-4.938C413.64,303.055,413.003,302.044,412.14,301.463z"/>
			<path style="fill:#241624;" d="M518.619,231.077c-3.771-7.438-10.657-12.934-17.802-17.542
				c-3.937-2.539-8.068-4.904-12.624-6.215c-4.557-1.312-7.449-2.454-11.891-0.696c2.101-2.775,0.951-6.964-1.818-9.049
				c-2.769-2.084-6.637-2.385-10.129-1.735c-3.492,0.65-6.754,2.137-10.089,3.349c-4.649,1.689-9.495,2.857-14.409,3.472
				c-3.529,0.442-7.503,0.469-10.115-1.802c-2.958-2.572-2.968-7.039-2.17-10.836c0.798-3.797,2.184-7.69,1.253-11.433
				c-1.976-7.944-11.78-9.855-18.759-9.086c-3.801,0.419-7.636,0.93-11.413,1.386c-1.927,0.233-3.861,0.42-5.784,0.685
				c-0.823,0.113-2.313,0.084-3.016,0.609c-1.082,0.809,13.067,1.032,11.751,1.347c-0.855,0.205-1.833,0.011-2.024,1.073
				c-0.163,0.904,0.096,2.082,0.164,2.997c0.292,3.908,0.877,7.787,1.584,11.64c0.941,5.123,2.403,10.543,2.403,15.777
				c1.163,16.68-4.664,33.15-6.093,49.851c-1.433,16.752,1.676,33.769,8.9,48.944c-0.74,0.731-1.18,1.842-1.025,2.858
				c0.283,1.858,1.824,3.269,3.381,4.388c8.536,6.137,19.972,7.828,30.614,6.235c10.643-1.593,20.61-6.199,29.81-11.671
				c6.003-3.571,11.871-7.639,16.004-13.14c4.133-5.501,6.617-12.412,4.63-18.837c10.485,0.204,20.994-5.183,26.731-13.703
				C522.42,251.426,523.181,240.076,518.619,231.077z"/>
			<g>
				<g>
					<path style="fill:#F3725F;" d="M346.479,142.711c2.067,1.26-4.061,9.903-4.061,9.903s8.699-10.759,10.428-10.085
						c2.731,1.065-7.352,13.14-7.352,13.14s11.31-12.866,13.433-10.456c2.123,2.41-10.517,13.874-10.517,13.874
						s12.555-10.047,14.007-7.674c1.452,2.374-15.24,14.711-15.24,14.711s10.485,0.54,10.512,2.683
						c0.046,3.615-22.275,3.397-22.275,3.397l-8.672-8.63C326.742,163.574,344.412,141.451,346.479,142.711z"/>
				</g>
				<g>
					<g>
						<path style="fill:#D6594C;" d="M335.62,163.352c1.881-3.205,5.174-5.254,8.933-5.106c1.221,0.048,1.219-1.85,0-1.898
							c-4.416-0.173-8.365,2.287-10.571,6.046C333.361,163.45,335.001,164.406,335.62,163.352L335.62,163.352z"/>
					</g>
				</g>
				<polygon style="fill:#F3725F;" points="326.742,163.574 319.695,173.576 330.981,180.914 337.006,170.15 				"/>
				<g>
					<g>
						<path style="fill:#EAAE4E;" d="M450.317,273.091c1.548-4.477,2.367-9.039,1.651-13.814c-0.481-3.223-1.627-6.169-3.263-8.837
							c-2.767-4.506-6.937-8.221-11.688-11.145c-3.236-2.001-6.738-3.631-10.255-4.899c-0.509-0.186-1.022-0.363-1.531-0.533
							c-2.701-0.897-5.443-1.658-8.216-2.285c-12.413-2.812-25.413-2.948-37.885-0.43c-4.536,0.913-10.884,4.49-15.231,6.109
							c-7.192,2.679-11.453,5.1-15.889,11.15c-3.561,4.85-6.022,10.55-7.042,16.718c-0.495,2.983-0.538,5.739-0.262,8.333
							c0.053,0.507,0.123,1.007,0.2,1.503c0.527,0.041,1.049,0.286,1.438,0.811c4.322,5.833,7.604,12.361,9.953,19.255
							c0.117,0.344,0.223,0.691,0.336,1.036c0.21,0.14,0.395,0.321,0.529,0.556c4.176,7.336,6.2,15.203,7.243,23.309
							c2.185,8.551,3.458,17.309,4.25,26.122c0.089,0.22,0.141,0.472,0.141,0.758c0,0.281-0.001,0.562-0.002,0.843
							c0.459,5.501,0.742,11.02,0.951,16.521c0.081,0.008,0.164,0.018,0.245,0.026c19.817,1.873,39.868,1.129,59.498-2.197
							c3.814-0.647,7.735-1.44,10.927-3.662c7.041-4.891,8.208-14.911,6.711-23.569c-0.091-0.525-0.189-1.042-0.299-1.552
							c-1.918-8.983-5.85-17.75-5.239-26.921C438.376,294.515,446.533,284.055,450.317,273.091z"/>
						<path style="fill:#F3725F;" d="M419.003,232.855c-8.17-4.536-13.078-24.64-11.392-33.943l-16.176,9.963
							c0.213,6.476-3.595,11.078-7.105,16.488c-1.83,2.82-4.011,5.749-7.207,6.678c4.616,6.281,12.606,9.423,20.319,9.621
							C405.155,241.861,414.08,238.891,419.003,232.855z"/>
						<path style="fill:#241624;" d="M397.864,222.157c6.591-0.916,8.942-7.277,9.81-13.467c-0.489-3.72-0.535-7.173-0.063-9.778
							l-16.176,9.963c0.106,3.214-0.78,5.966-2.127,8.584C391.135,220.568,393.886,222.71,397.864,222.157z"/>
						<path style="fill:#241624;" d="M393.029,459.419c1.81-36.245,3.05-65.854,2.668-72.496l-30.353-23.134
							c-11.85,14.104-16.056,52.459-16.685,95.629H393.029z"/>
						<path style="fill:#241624;" d="M447.926,459.419c-0.471-39.514-3.476-76.613-11.658-99.233l-38.559,20.153
							c-0.118,7.803,1.947,40.187,4.731,79.079H447.926z"/>
						<path style="fill:#241624;" d="M365.122,360.862l71.293-2.522c0,0,9.161,36.639,9.826,57.245l-45.546,11.823h-6.317
							l-43.258-15.609C351.121,411.799,355.502,372.627,365.122,360.862z"/>
						<path style="fill:#EAAE4E;" d="M358.141,292.29l-1.424,51.502c-0.147,5.325,2.555,10.313,7.061,13.035l5.001,3.022
							l8.976-6.756l-5.652-44.927L358.141,292.29z"/>
						<path style="fill:#241624;" d="M435.436,363.565h-68.153c-1.92,0-3.491-1.596-3.491-3.547l0,0
							c0-1.951,1.571-3.547,3.491-3.547h68.153c1.92,0,3.491,1.596,3.491,3.547l0,0
							C438.927,361.969,437.356,363.565,435.436,363.565z"/>
						<g>
							<path style="fill:#F3725F;" d="M398.297,215.032L398.297,215.032c-7.688,0-13.977-5.664-13.977-12.586v-18.248
								c0-6.922,6.29-12.586,13.977-12.586l0,0c7.688,0,13.977,5.664,13.977,12.586v18.248
								C412.275,209.369,405.985,215.032,398.297,215.032z"/>
							<path style="fill:#F3725F;" d="M420.387,197.787c0,2.677-2.41,4.847-5.383,4.847s-5.383-2.17-5.383-4.847
								c0-2.677,2.41-4.847,5.383-4.847S420.387,195.111,420.387,197.787z"/>
							<path style="fill:#F3725F;" d="M388.135,197.406c0,2.677-2.41,4.847-5.383,4.847c-2.973,0-5.383-2.17-5.383-4.847
								c0-2.677,2.41-4.847,5.383-4.847C385.726,192.559,388.135,194.729,388.135,197.406z"/>
						</g>
						
							<path style="fill:none;stroke:#CCCCCC;stroke-width:0.7633;stroke-linecap:round;stroke-linejoin:round;stroke-miterlimit:10;" d="
							M385.293,422.037c0,0,13.581,10.683,28.038,0"/>
						<g>
							<g>
								<path style="fill:#241624;" d="M409.028,303.367c-4.56,11.194-13.168,19.925-24.194,24.539
									c-0.662,0.277-0.951-0.818-0.296-1.091c10.623-4.445,19.022-12.962,23.416-23.748
									C408.224,302.403,409.303,302.694,409.028,303.367L409.028,303.367z"/>
							</g>
						</g>
						<path style="fill:#EAAE4E;" d="M370.561,248.709l-1.244-6.45c-0.193-0.999-1.155-1.656-2.138-1.46l-8.332,1.66
							c-0.983,0.196-1.63,1.173-1.437,2.172l1.244,6.45c0.193,0.999,1.155,1.656,2.138,1.46l8.332-1.659
							C370.107,250.685,370.754,249.708,370.561,248.709z"/>
						<path style="fill:#EAAE4E;" d="M339.462,181.071l-31.403,38.059l55.487,23.671c0.118,0.051,0.324,0.141,0.442,0.195
							c9.891,4.504,14.044,15.911,9.276,25.478c-4.768,9.567-16.652,13.671-26.543,9.167l-71.625-32.617l-2.689-1.22
							c-1.371-0.633-2.672-1.459-3.861-2.48c-6.867-5.897-7.418-16.083-1.23-22.75l50.403-50.231L339.462,181.071z"/>
						
							<path style="fill:none;stroke:#241624;stroke-width:1.5267;stroke-linecap:round;stroke-linejoin:round;stroke-miterlimit:10;" d="
							M335.656,267.156c0,0,20.228,27.862,22.646,41.475"/>
					</g>
				</g>
			</g>
			<g>
				<path style="fill:#EAAE4E;" d="M418,238.25c4.5-1.25,7.189-1.91,11-1.75c41.47,1.738,51.223,43.748,83.413,61.276
					c10.828,6.817,21.314,14.16,32.012,21.178c-0.383,1.371-0.763,2.743-1.152,4.112c-1.416,4.987-2.872,9.963-4.348,14.932
					c-16.8-3.81-33.785-6.889-50.87-9.158C461.318,309.282,408.82,263.663,418,238.25z"/>
				<g>
					<path style="fill:#F3725F;" d="M579.334,338.213c0.804-2.283-9.409-5.103-9.409-5.103s13.542,2.833,14.455,1.217
						c1.442-2.552-14.005-5.529-14.005-5.529s16.898,2.814,17.018-0.395c0.12-3.21-16.921-4.097-16.921-4.097
						s16.08-0.157,15.704-2.914c-0.376-2.757-21.109-1.757-21.109-1.757s7.78-7.049,6.446-8.727
						c-2.251-2.83-19.404,11.455-19.404,11.455l-1.26,12.169C550.851,334.533,578.53,340.496,579.334,338.213z"/>
				</g>
				<g>
					<g>
						<path style="fill:#D6594C;" d="M557.284,330.894c4.139,1.515,8.664,0.83,12.004-2.092c0.921-0.806-0.426-2.143-1.342-1.342
							c-2.853,2.496-6.67,2.88-10.158,1.604C556.639,328.644,556.144,330.478,557.284,330.894L557.284,330.894z"/>
					</g>
				</g>
				<polygon style="fill:#F3725F;" points="550.851,334.533 539.067,331.242 543.168,318.42 554.643,322.948 				"/>
				
					<path style="fill:none;stroke:#241624;stroke-width:1.5267;stroke-linecap:round;stroke-linejoin:round;stroke-miterlimit:10;" d="
					M462.043,261.101c-5.316,8.793-11.882,20.904-33.984,43.319"/>
			</g>
			<path style="fill:#241624;" d="M380.076,178.286c0.089,2.806,1.595,5.415,3.631,7.202c2.036,1.787,4.561,2.836,7.116,3.547
				c1.861,0.517,3.788,0.871,5.704,0.686c1.915-0.185,3.829-0.953,5.172-2.417c1.342-1.464,2.021-3.68,1.46-5.635
				c0.648,2.187,1.096,4.235,0.452,6.424c2.725-0.409,5.311-1.803,7.231-3.899c1.92-2.096,3.163-4.881,3.475-7.788
				c0.112-1.044,0.086-2.179-0.484-3.037c-0.773-1.164-2.261-1.441-3.593-1.603c-6.7-0.816-13.461-1.146-20.195-0.746
				c-2.198,0.131-4.451,0.356-6.427,1.385c-1.996,1.039-3.605,2.892-4.421,5.09"/>
			<path style="fill:#FFFFFF;" d="M391.14,200.81c-0.029,0.245-0.047,0.494-0.047,0.746c0,3.646,3.054,6.601,6.822,6.601
				c3.768,0,6.822-2.955,6.822-6.601c0-0.253-0.018-0.501-0.047-0.746H391.14z"/>
			<path style="fill:none;stroke:#FFFFFF;stroke-width:0.7633;stroke-miterlimit:10;" d="M384.414,209.588
				c0,4.321-1.88,7.824-4.198,7.824c-2.319,0-4.198-3.503-4.198-7.824s1.88-7.824,4.198-7.824
				C382.535,201.764,384.414,205.267,384.414,209.588z"/>
			<path style="fill:none;stroke:#FFFFFF;stroke-width:0.7633;stroke-miterlimit:10;" d="M419.909,210.065
				c0,4.321-1.88,7.824-4.198,7.824s-4.198-3.503-4.198-7.824s1.88-7.824,4.198-7.824S419.909,205.744,419.909,210.065z"/>
		</g>
		<g>
			<g>
				<g>
					<path style="fill:#8A1807;" d="M629.59,130.223c-2.067,1.26,4.061,9.903,4.061,9.903s-8.699-10.759-10.428-10.085
						c-2.731,1.065,7.352,13.14,7.352,13.14s-11.31-12.866-13.433-10.456c-2.123,2.41,10.517,13.874,10.517,13.874
						s-12.555-10.047-14.007-7.674c-1.452,2.374,15.24,14.711,15.24,14.711s-10.485,0.54-10.512,2.683
						c-0.046,3.615,22.275,3.397,22.275,3.397l8.672-8.63C649.327,151.086,631.657,128.963,629.59,130.223z"/>
				</g>
				<g>
					<g>
						<path style="fill:#D6594C;" d="M642.088,149.906c-2.207-3.759-6.156-6.22-10.572-6.046c-1.217,0.048-1.223,1.946,0,1.898
							c3.76-0.148,7.053,1.903,8.933,5.106C641.068,151.917,642.708,150.963,642.088,149.906L642.088,149.906z"/>
					</g>
				</g>
				<polygon style="fill:#8A1807;" points="649.327,151.086 656.374,161.087 645.088,168.426 639.063,157.662 				"/>
				<g>
					<g>
						<path style="fill:#FBC999;" d="M525.752,260.603c-1.548-4.477-2.367-9.039-1.651-13.814c0.481-3.223,1.627-6.169,3.263-8.837
							c2.767-4.505,6.937-8.22,11.688-11.144c3.236-2.001,6.738-3.631,10.255-4.899c0.509-0.186,1.022-0.363,1.531-0.533
							c2.701-0.897,5.443-1.658,8.216-2.285c12.413-2.812,25.413-2.948,37.885-0.43c4.536,0.913,10.884,4.49,15.231,6.109
							c7.192,2.679,11.453,5.099,15.889,11.15c3.562,4.85,6.022,10.55,7.042,16.718c0.495,2.983,0.538,5.739,0.262,8.333
							c-0.053,0.507-0.123,1.007-0.2,1.503c-0.527,0.041-1.049,0.286-1.438,0.811c-4.322,5.833-7.604,12.361-9.953,19.255
							c-0.117,0.344-0.223,0.691-0.336,1.036c-0.21,0.14-0.395,0.321-0.529,0.556c-4.176,7.336-6.2,15.203-7.243,23.309
							c-2.185,8.551-3.458,17.309-4.25,26.122c-0.089,0.22-0.141,0.472-0.141,0.758c0,0.281,0.001,0.562,0.002,0.843
							c-0.459,5.501-0.742,11.02-0.951,16.521c-0.081,0.008-0.164,0.018-0.245,0.026c-19.817,1.873-39.868,1.129-59.498-2.197
							c-3.814-0.647-7.735-1.44-10.927-3.662c-7.041-4.891-8.208-14.911-6.711-23.569c0.091-0.525,0.189-1.042,0.299-1.552
							c1.918-8.983,5.85-17.75,5.239-26.921C537.693,282.027,529.536,271.567,525.752,260.603z"/>
						<path style="fill:#8A1807;" d="M557.066,220.367c8.17-4.536,13.078-24.64,11.392-33.943l16.176,9.963
							c-0.213,6.476,3.595,11.078,7.105,16.488c1.83,2.82,4.011,5.749,7.207,6.678c-4.616,6.281-12.606,9.423-20.319,9.621
							C570.914,229.372,561.989,226.402,557.066,220.367z"/>
						<path style="fill:#241624;" d="M578.205,209.669c-6.591-0.916-8.942-7.277-9.81-13.467c0.489-3.72,0.534-7.173,0.063-9.779
							l16.176,9.963c-0.106,3.214,0.78,5.966,2.127,8.584C584.934,208.08,582.183,210.222,578.205,209.669z"/>
						<path style="fill:#FBC999;" d="M617.928,279.802l1.424,51.502c0.147,5.325-2.555,10.313-7.061,13.035l-5.001,3.022
							l-8.976-6.756l5.652-44.927L617.928,279.802z"/>
						<path style="fill:#241624;" d="M540.633,351.076h68.153c1.92,0,3.491-1.596,3.491-3.547l0,0c0-1.951-1.571-3.547-3.491-3.547
							h-68.153c-1.92,0-3.491,1.596-3.491,3.547l0,0C537.142,349.48,538.713,351.076,540.633,351.076z"/>
						<g>
							<path style="fill:#8A1807;" d="M577.772,202.544L577.772,202.544c7.688,0,13.977-5.664,13.977-12.586V171.71
								c0-6.922-6.29-12.586-13.977-12.586l0,0c-7.688,0-13.977,5.664-13.977,12.586v18.248
								C563.795,196.88,570.084,202.544,577.772,202.544z"/>
							<path style="fill:#8A1807;" d="M555.683,185.299c0,2.677,2.41,4.847,5.383,4.847c2.973,0,5.383-2.17,5.383-4.847
								s-2.41-4.847-5.383-4.847C558.092,180.452,555.683,182.622,555.683,185.299z"/>
							<path style="fill:#8A1807;" d="M587.934,184.917c0,2.677,2.41,4.847,5.383,4.847c2.973,0,5.382-2.17,5.382-4.847
								c0-2.677-2.41-4.847-5.382-4.847C590.343,180.07,587.934,182.24,587.934,184.917z"/>
						</g>
						<g>
							<g>
								<path style="fill:#241624;" d="M554.808,278.783c6.804,16.702,19.648,29.73,36.099,36.613
									c0.988,0.413,1.419-1.22,0.442-1.629c-15.85-6.631-28.382-19.339-34.938-35.434
									C556.008,277.344,554.399,277.778,554.808,278.783L554.808,278.783z"/>
							</g>
						</g>
						<path style="fill:#EAAE4E;" d="M605.508,236.221l1.244-6.45c0.193-0.999,1.155-1.656,2.138-1.46l8.332,1.659
							c0.983,0.196,1.63,1.173,1.437,2.172l-1.244,6.45c-0.193,0.999-1.155,1.656-2.138,1.46l-8.332-1.659
							C605.962,238.197,605.315,237.219,605.508,236.221z"/>
						<path style="fill:#A83500;" d="M636.607,168.582l31.403,38.059l-55.487,23.671c-0.118,0.051-0.324,0.141-0.442,0.195
							c-9.891,4.504-14.044,15.911-9.276,25.478c4.768,9.567,16.652,13.671,26.543,9.167l71.625-32.617l2.689-1.22
							c1.371-0.633,2.672-1.459,3.861-2.481c6.867-5.897,7.418-16.083,1.231-22.75l-50.403-50.232L636.607,168.582z"/>
						
							<path style="fill:none;stroke:#241624;stroke-width:1.5267;stroke-linecap:round;stroke-linejoin:round;stroke-miterlimit:10;" d="
							M640.413,254.668c0,0-20.228,27.862-22.646,41.475"/>
						<path style="fill:#D6874C;" d="M584.02,461.613c-2.147-46.773-3.618-84.984-3.165-93.555l36.009-29.854
							c14.058,18.202,19.048,67.698,19.793,123.409H584.02z"/>
						<path style="fill:#D6874C;" d="M518.895,461.613c0.559-50.992,4.124-98.869,13.831-128.059l45.744,26.008
							c0.14,10.07-2.31,51.861-5.613,102.052H518.895z"/>
						<path style="fill:#D6874C;" d="M617.127,334.425l-84.577-3.254c0,0-10.868,47.283-11.657,73.874l54.033,15.257h7.494
							l51.317-20.143C633.737,400.159,628.54,349.607,617.127,334.425z"/>
						
							<path style="fill:none;stroke:#241624;stroke-width:1.6187;stroke-linecap:round;stroke-linejoin:round;stroke-miterlimit:10;" d="
							M593.199,413.371c0,0-16.112,13.787-33.263,0"/>
					</g>
				</g>
			</g>
			<g>
				<path style="fill:#A83500;" d="M549.555,262.324c0.719-3.871,0.8-7.778,0.729-11.679c-0.77-42.456-44.411-59.154-61.59-92.566
					c-6.723-11.265-13.992-22.196-20.924-33.333c-1.414,0.353-2.829,0.703-4.242,1.062c-5.146,1.307-10.281,2.655-15.409,4.025
					c3.495,17.287,6.236,34.743,8.145,52.278C475.656,210.003,523.287,270.993,549.555,262.324z"/>
				<g>
					<path style="fill:#8A1807;" d="M448.884,88.503c2.359-0.758,5,9.766,5,9.766s-2.573-13.928-0.895-14.817
						c2.651-1.403,5.325,14.478,5.325,14.478s-2.472-17.359,0.82-17.391c3.292-0.032,3.786,17.419,3.786,17.419
						s0.553-16.439,3.369-15.976c2.816,0.463,1.286,21.636,1.286,21.636s7.414-7.757,9.101-6.346
						c2.845,2.382-12.213,19.519-12.213,19.519l-12.502,0.945C451.961,117.734,446.525,89.261,448.884,88.503z"/>
				</g>
				<g>
					<g>
						<path style="fill:#D6594C;" d="M457.728,110.768c-1.222-3.601-0.718-7.481,1.914-10.334c0.847-0.918-0.524-2.296-1.374-1.374
							c-3.08,3.337-3.861,7.961-2.414,12.225C456.253,112.462,458.131,111.957,457.728,110.768L457.728,110.768z"/>
					</g>
				</g>
				<polygon style="fill:#8A1807;" points="451.961,117.734 455.046,129.877 468.287,126.045 463.926,114.183 				"/>
			</g>
			<path style="fill:#FFFFFF;" d="M584.929,188.321c0.029,0.245,0.047,0.493,0.047,0.746c0,3.646-3.054,6.601-6.822,6.601
				c-3.768,0-6.822-2.955-6.822-6.601c0-0.253,0.018-0.501,0.047-0.746H584.929z"/>
		</g>
		
			<line style="fill:none;stroke:#241624;stroke-width:1.6187;stroke-linecap:round;stroke-linejoin:round;stroke-miterlimit:10;" x1="532.256" y1="341.834" x2="623.861" y2="346.69"/>
		<path style="fill:#A83500;" d="M557.066,220.367c0,0,13.534,54.807,9.488,100.67l-42.896-7.284l8.094-14.299
			c0,0,1.137-5.744,2.158-11.871c0.27-1.619-22.122-39.389-15.648-50.18C524.737,226.612,557.066,220.367,557.066,220.367z"/>
		<path style="fill:#A83500;" d="M597.753,217.399c0,0-14.26,57.744-9.996,106.066l45.195-7.675l-8.527-15.065
			c0,0-1.198-6.052-2.274-12.507c-0.284-1.705,23.308-41.5,16.486-52.87S597.753,217.399,597.753,217.399z"/>
		<ellipse style="fill:#A83500;" cx="537.956" cy="292.575" rx="8.633" ry="8.768"/>
		<path style="fill:#A83500;" d="M629.144,293.384c0,4.842-2.778,8.768-6.205,8.768c-3.427,0-6.205-3.926-6.205-8.768
			c0-4.842,2.778-8.768,6.205-8.768C626.366,284.616,629.144,288.542,629.144,293.384z"/>
		
			<path style="fill:none;stroke:#241624;stroke-width:1.5267;stroke-linecap:round;stroke-linejoin:round;stroke-miterlimit:10;" d="
			M540.924,231.468c0,0-7.014,11.871,5.126,20.234c0,0-7.014,9.442,6.205,25.09"/>
		
			<path style="fill:none;stroke:#241624;stroke-width:1.5267;stroke-linecap:round;stroke-linejoin:round;stroke-miterlimit:10;" d="
			M611.75,232.008c0,0,7.014,11.871-5.126,20.234c0,0,7.014,9.443-6.205,25.09"/>
		
			<line style="fill:none;stroke:#241624;stroke-width:1.5267;stroke-linecap:round;stroke-linejoin:round;stroke-miterlimit:10;" x1="649.378" y1="162.943" x2="677.031" y2="190.596"/>
		
			<path style="fill:none;stroke:#241624;stroke-width:1.5267;stroke-linecap:round;stroke-linejoin:round;stroke-miterlimit:10;" d="
			M460.528,129.219c1.619,0.27,19.424,45.594,19.424,45.594"/>
		
			<line style="fill:none;stroke:#241624;stroke-width:1.5267;stroke-linecap:round;stroke-linejoin:round;stroke-miterlimit:10;" x1="550.097" y1="287.853" x2="537.956" y2="301.343"/>
		
			<line style="fill:none;stroke:#241624;stroke-width:1.5267;stroke-linecap:round;stroke-linejoin:round;stroke-miterlimit:10;" x1="608.91" y1="289.472" x2="620.78" y2="307.008"/>
		<ellipse style="fill:#241624;" cx="568.172" cy="159.705" rx="15.108" ry="16.727"/>
		<ellipse style="fill:#241624;" cx="594.072" cy="160.245" rx="15.108" ry="16.727"/>
		<path style="fill:none;stroke:#EAAE4E;stroke-width:0.5396;stroke-miterlimit:10;" d="M600.007,200.461
			c0,5.801-1.849,10.503-4.129,10.503c-2.28,0-4.129-4.702-4.129-10.503s1.849-10.503,4.129-10.503
			C598.158,189.958,600.007,194.66,600.007,200.461z"/>
		
			<ellipse style="fill:none;stroke:#EAAE4E;stroke-width:0.5396;stroke-miterlimit:10;" cx="560.266" cy="199.094" rx="4.129" ry="10.503"/>
		<path style="fill:#241624;" d="M658.778,461.84H133.035c-1.339,0-2.434-1.095-2.434-2.434v0c0-1.339,1.095-2.434,2.434-2.434
			h525.743c1.339,0,2.434,1.095,2.434,2.434v0C661.212,460.745,660.117,461.84,658.778,461.84z"/>
		
			<path style="fill:none;stroke:#2D1A14;stroke-width:1.4604;stroke-linecap:round;stroke-linejoin:round;stroke-miterlimit:10;" d="
			M167.598,81.163c0,3.226-2.615,5.842-5.842,5.842c-3.226,0-5.842-2.615-5.842-5.842c0-3.226,2.615-5.841,5.842-5.841
			C164.982,75.322,167.598,77.937,167.598,81.163z"/>
		
			<circle style="fill:none;stroke:#2D1A14;stroke-width:1.4604;stroke-linecap:round;stroke-linejoin:round;stroke-miterlimit:10;" cx="82.894" cy="240.833" r="3.894"/>
		
			<circle style="fill:none;stroke:#2D1A14;stroke-width:1.4604;stroke-linecap:round;stroke-linejoin:round;stroke-miterlimit:10;" cx="104.8" cy="266.634" r="2.434"/>
		
			<circle style="fill:none;stroke:#2D1A14;stroke-width:1.4604;stroke-linecap:round;stroke-linejoin:round;stroke-miterlimit:10;" cx="269.825" cy="93.82" r="2.921"/>
		
			<circle style="fill:none;stroke:#2D1A14;stroke-width:1.4604;stroke-linecap:round;stroke-linejoin:round;stroke-miterlimit:10;" cx="392.012" cy="85.545" r="5.355"/>
		
			<circle style="fill:none;stroke:#2D1A14;stroke-width:1.4604;stroke-linecap:round;stroke-linejoin:round;stroke-miterlimit:10;" cx="403.695" cy="55.363" r="2.434"/>
		
			<circle style="fill:none;stroke:#2D1A14;stroke-width:1.4604;stroke-linecap:round;stroke-linejoin:round;stroke-miterlimit:10;" cx="513.225" cy="123.028" r="1.947"/>
		
			<circle style="fill:none;stroke:#2D1A14;stroke-width:1.4604;stroke-linecap:round;stroke-linejoin:round;stroke-miterlimit:10;" cx="672.895" cy="304.117" r="3.894"/>
		
			<path style="fill:none;stroke:#2D1A14;stroke-width:1.4604;stroke-linecap:round;stroke-linejoin:round;stroke-miterlimit:10;" d="
			M712.813,271.989c0,1.613-1.308,2.921-2.921,2.921s-2.921-1.308-2.921-2.921c0-1.613,1.308-2.921,2.921-2.921
			S712.813,270.375,712.813,271.989z"/>
		
			<circle style="fill:none;stroke:#2D1A14;stroke-width:1.4604;stroke-linecap:round;stroke-linejoin:round;stroke-miterlimit:10;" cx="709.892" cy="390.768" r="4.868"/>
		
			<circle style="fill:none;stroke:#2D1A14;stroke-width:1.4604;stroke-linecap:round;stroke-linejoin:round;stroke-miterlimit:10;" cx="500.568" cy="373.243" r="1.947"/>
		
			<circle style="fill:none;stroke:#2D1A14;stroke-width:1.4604;stroke-linecap:round;stroke-linejoin:round;stroke-miterlimit:10;" cx="310.716" cy="353.771" r="3.894"/>
		
			<circle style="fill:none;stroke:#2D1A14;stroke-width:1.4604;stroke-linecap:round;stroke-linejoin:round;stroke-miterlimit:10;" cx="291.245" cy="324.563" r="3.894"/>
	</g>
</g>
</svg>
